<svg viewBox="0 0 24 24" fill="none" xmlns="http://www.w3.org/2000/svg">
<path d="M7 8C4.23858 8 2 10.2386 2 13C2 15.7614 4.23858 18 7 18C9.5244 18 11.6033 16.1472 11.9562 13.7297L12.0458 13.7297C12.3987 16.1472 14.4776 18 17 18C19.7614 18 22 15.7614 22 13C22 10.2386 19.7614 8 17 8C14.4776 8 12.3987 9.85278 12.0458 12.2703L11.9562 12.2703C11.6033 9.85278 9.5244 8 7 8ZM7 10C8.65685 10 10 11.3431 10 13C10 14.6569 8.65685 16 7 16C5.34315 16 4 14.6569 4 13C4 11.3431 5.34315 10 7 10ZM17 10C18.6569 10 20 11.3431 20 13C20 14.6569 18.6569 16 17 16C15.3431 16 14 14.6569 14 13C14 11.3431 15.3431 10 17 10Z" fill="#8b5cf6" fill-rule="evenodd" clip-rule="evenodd"/>
</svg>
